<?xml version="1.0" encoding="UTF-8" standalone="no"?>
<!-- Created with Inkscape (http://www.inkscape.org/) -->

<svg
   xmlns:dc="http://purl.org/dc/elements/1.1/"
   xmlns:cc="http://creativecommons.org/ns#"
   xmlns:rdf="http://www.w3.org/1999/02/22-rdf-syntax-ns#"
   xmlns:svg="http://www.w3.org/2000/svg"
   xmlns="http://www.w3.org/2000/svg"
   xmlns:sodipodi="http://sodipodi.sourceforge.net/DTD/sodipodi-0.dtd"
   xmlns:inkscape="http://www.inkscape.org/namespaces/inkscape"
   width="1000"
   height="1000"
   viewBox="0 0 264.58333 264.58333"
   version="1.1"
   id="svg8"
   inkscape:version="0.91 r13725"
   sodipodi:docname="luxmusic.svg"
   inkscape:export-filename="/media/data/OneDrive/_Private/Lux Music/luxmusic-transparent.png"
   inkscape:export-xdpi="180"
   inkscape:export-ydpi="180">
  <title
     id="title905">Lux Music Logo</title>
  <defs
     id="defs2" />
  <sodipodi:namedview
     id="base"
     pagecolor="#000000"
     bordercolor="#666666"
     borderopacity="1.0"
     inkscape:pageopacity="1"
     inkscape:pageshadow="2"
     inkscape:zoom="0.7"
     inkscape:cx="228.28531"
     inkscape:cy="559.97155"
     inkscape:document-units="mm"
     inkscape:current-layer="layer1"
     showgrid="false"
     inkscape:pagecheckerboard="true"
     units="px"
     inkscape:window-width="1920"
     inkscape:window-height="1007"
     inkscape:window-x="0"
     inkscape:window-y="24"
     inkscape:window-maximized="1" />
  <metadata
     id="metadata5">
    <rdf:RDF>
      <cc:Work
         rdf:about="">
        <dc:format>image/svg+xml</dc:format>
        <dc:type
           rdf:resource="http://purl.org/dc/dcmitype/StillImage" />
        <dc:title>Lux Music Logo</dc:title>
        <cc:license
           rdf:resource="http://creativecommons.org/licenses/by-sa/3.0/" />
        <dc:creator>
          <cc:Agent>
            <dc:title>T.D. Stoneheart</dc:title>
          </cc:Agent>
        </dc:creator>
        <dc:rights>
          <cc:Agent>
            <dc:title>Some Rights Reserved</dc:title>
          </cc:Agent>
        </dc:rights>
        <dc:publisher>
          <cc:Agent>
            <dc:title>Lux Music by T.D. Stoneheart</dc:title>
          </cc:Agent>
        </dc:publisher>
        <dc:date>2018-05-28</dc:date>
      </cc:Work>
      <cc:License
         rdf:about="http://creativecommons.org/licenses/by-sa/3.0/">
        <cc:permits
           rdf:resource="http://creativecommons.org/ns#Reproduction" />
        <cc:permits
           rdf:resource="http://creativecommons.org/ns#Distribution" />
        <cc:requires
           rdf:resource="http://creativecommons.org/ns#Notice" />
        <cc:requires
           rdf:resource="http://creativecommons.org/ns#Attribution" />
        <cc:permits
           rdf:resource="http://creativecommons.org/ns#DerivativeWorks" />
        <cc:requires
           rdf:resource="http://creativecommons.org/ns#ShareAlike" />
      </cc:License>
    </rdf:RDF>
  </metadata>
  <g
     inkscape:label="Layer 1"
     inkscape:groupmode="layer"
     id="layer1"
     transform="translate(0,-32.41665)">
    <g
       id="g899"
       transform="translate(-6.8065281,7.7629943)"
       style="fill:#aaff00;fill-opacity:1">
      <g
         id="text855"
         style="font-style:italic;font-variant:normal;font-weight:normal;font-stretch:normal;font-size:50.79999924px;line-height:1.25;font-family:'Sans-Serif Latin';-inkscape-font-specification:'Sans-Serif Latin Italic';letter-spacing:0px;word-spacing:0px;fill:#aaff00;fill-opacity:1;stroke:none;stroke-width:0.26458332"
         aria-label="LUX">
        <path
           id="path865"
           style="font-style:normal;font-variant:normal;font-weight:bold;font-stretch:normal;font-size:50.79999924px;font-family:'Sans-Serif Latin';-inkscape-font-specification:'Sans-Serif Latin Bold';fill:#aaff00;fill-opacity:1;stroke-width:0.26458332"
           d="M 63.494094,185.49699 H 43.129446 v -34.99941 h 7.366992 v 29.36875 h 12.997656 z"
           inkscape:connector-curvature="0" />
        <path
           id="path867"
           style="font-style:normal;font-variant:normal;font-weight:bold;font-stretch:normal;font-size:50.79999924px;font-family:'Sans-Serif Latin';-inkscape-font-specification:'Sans-Serif Latin Bold';fill:#aaff00;fill-opacity:1;stroke-width:0.26458332"
           d="m 97.575735,172.69778 c 0,4.20026 -1.265039,7.49928 -3.795117,9.89707 -2.513541,2.38125 -6.126757,3.57187 -10.839648,3.57187 -4.646745,0 -8.30957,-1.2237 -10.988476,-3.67109 -2.66237,-2.4474 -3.993555,-5.68028 -3.993555,-9.69864 v -22.29941 h 7.366992 v 22.00176 c 0,2.39779 0.694531,4.30775 2.083594,5.72988 1.389062,1.42213 3.232877,2.1332 5.531445,2.1332 2.298567,0 4.216796,-0.73587 5.754687,-2.20761 1.554427,-1.47175 2.331641,-3.38998 2.331641,-5.75469 V 82.744755 l 6.548437,3.875408 z"
           inkscape:connector-curvature="0"
           sodipodi:nodetypes="scscsccssscsccs" />
        <path
           id="path869"
           style="font-style:normal;font-variant:normal;font-weight:bold;font-stretch:normal;font-size:50.79999924px;font-family:'Sans-Serif Latin';-inkscape-font-specification:'Sans-Serif Latin Bold';fill:#aaff00;fill-opacity:1;stroke-width:0.26458332"
           d="m 134.90679,185.49699 h -7.86308 l -9.0041,-12.99765 -8.88008,12.99765 h -8.08633 l 12.99766,-18.28105 -12.32793,-16.71836 h 7.91269 l 8.23516,11.88145 8.13593,-11.88145 h 8.16075 l -12.32793,16.86719 z"
           inkscape:connector-curvature="0" />
      </g>
      <g
         id="text863"
         style="font-style:italic;font-variant:normal;font-weight:normal;font-stretch:normal;font-size:50.79999924px;line-height:1.25;font-family:'Sans-Serif Latin';-inkscape-font-specification:'Sans-Serif Latin Italic';letter-spacing:0px;word-spacing:0px;fill:#aaff00;fill-opacity:1;stroke:none;stroke-width:0.26458332"
         aria-label="MUSIC">
        <path
           id="path872"
           style="font-style:normal;font-variant:normal;font-weight:bold;font-stretch:normal;font-size:50.79999924px;font-family:'Sans-Serif Latin';-inkscape-font-specification:'Sans-Serif Latin Bold';fill:#aaff00;fill-opacity:1;stroke-width:0.26458332"
           d="m 132.44168,230.47617 h -7.16855 v -26.16895 l -8.68164,26.16895 h -6.39961 l -8.58242,-26.21856 v 26.21856 H 94.912192 V 195.47675 H 104.462 l 9.07851,27.58281 9.15293,-27.58281 h 9.74824 z"
           inkscape:connector-curvature="0" />
        <path
           id="path874"
           style="font-style:normal;font-variant:normal;font-weight:bold;font-stretch:normal;font-size:50.79999924px;font-family:'Sans-Serif Latin';-inkscape-font-specification:'Sans-Serif Latin Bold';fill:#aaff00;fill-opacity:1;stroke-width:0.26458332"
           d="m 169.59911,217.67695 c 0,4.20026 -1.26504,7.49928 -3.79512,9.89707 -2.51354,2.38125 -6.12676,3.57187 -10.83965,3.57187 -4.64675,0 -8.30957,-1.2237 -10.98848,-3.67109 -2.66237,-2.4474 -3.99355,-5.68028 -3.99355,-9.69863 v -22.29942 h 7.36699 v 22.00176 c 0,2.39779 0.69453,4.30775 2.0836,5.72988 1.38906,1.42214 3.23287,2.13321 5.53144,2.13321 2.29857,0 4.2168,-0.73587 5.75469,-2.20762 1.55443,-1.47175 2.33164,-3.38998 2.33164,-5.75469 v -90.83606 l 6.54844,1.58345 z"
           inkscape:connector-curvature="0"
           sodipodi:nodetypes="scscsccscscsccs" />
        <path
           id="path876"
           style="font-style:normal;font-variant:normal;font-weight:bold;font-stretch:normal;font-size:50.79999924px;font-family:'Sans-Serif Latin';-inkscape-font-specification:'Sans-Serif Latin Bold';fill:#aaff00;fill-opacity:1;stroke-width:0.26458332"
           d="m 194.80067,201.97558 q -4.2168,-1.41387 -7.11895,-1.41387 -2.33164,0 -3.99355,1.0418 -1.66191,1.01699 -1.66191,2.80293 0,2.15801 4.39043,3.96875 4.19199,1.71152 5.68027,2.48047 1.51308,0.76894 2.90215,2.05879 1.41386,1.26504 2.23242,3.02617 0.81855,1.76113 0.81855,4.01836 0,5.15937 -3.81992,8.18555 -3.81992,3.00136 -9.50019,3.00136 -5.33301,0 -10.31875,-3.1998 l 2.75332,-4.88653 q 4.2664,2.33164 7.36699,2.33164 2.6541,0 4.44004,-1.36425 1.81074,-1.38907 1.81074,-3.54707 0,-1.66192 -1.24023,-2.92696 -1.21543,-1.26504 -4.29122,-2.53007 -4.06796,-1.66192 -5.38261,-2.35645 -1.31465,-0.71934 -2.55488,-1.90996 -1.21543,-1.19063 -1.88516,-2.72852 -0.64492,-1.56269 -0.64492,-3.44785 0,-4.48965 3.52226,-7.11894 3.52227,-2.6541 9.27696,-2.6541 4.34082,0 9.5498,1.93476 z"
           inkscape:connector-curvature="0" />
        <path
           id="path878"
           style="font-style:normal;font-variant:normal;font-weight:bold;font-stretch:normal;font-size:50.79999924px;font-family:'Sans-Serif Latin';-inkscape-font-specification:'Sans-Serif Latin Bold';fill:#aaff00;fill-opacity:1;stroke-width:0.26458332"
           d="m 211.02294,230.47617 h -7.367 v -34.99942 h 7.367 z"
           inkscape:connector-curvature="0" />
        <path
           id="path880"
           style="font-style:normal;font-variant:normal;font-weight:bold;font-stretch:normal;font-size:50.79999924px;font-family:'Sans-Serif Latin';-inkscape-font-specification:'Sans-Serif Latin Bold';fill:#aaff00;fill-opacity:1;stroke-width:0.26458332"
           d="m 245.65028,226.87949 q -2.97656,2.25722 -5.72988,3.27421 -2.72852,0.99219 -6.10196,0.99219 -7.59023,0 -12.12949,-5.08496 -4.53926,-5.08496 -4.53926,-13.07207 0,-8.18555 4.39043,-13.17129 4.41524,-5.01054 12.27832,-5.01054 6.17637,0 11.33575,3.47265 l -2.90215,4.7625 q -4.53926,-2.43086 -8.4336,-2.43086 -4.41523,0 -6.74687,3.22461 -2.30684,3.22461 -2.30684,9.15293 0,5.8291 2.35645,9.15293 2.38125,3.29902 6.69726,3.29902 4.24161,0 9.10332,-3.1998 z"
           inkscape:connector-curvature="0" />
      </g>
    </g>
    <path
       style="fill:#aaff00;fill-opacity:1;stroke:none;stroke-width:0.26458332px;stroke-linecap:butt;stroke-linejoin:miter;stroke-opacity:1"
       d="m 84.220766,90.507749 78.583644,45.370291 -2.19726,7.35906 -72.540474,-41.29963 z"
       id="path903"
       inkscape:connector-curvature="0"
       sodipodi:nodetypes="ccccc" />
  </g>
</svg>
